<svg xmlns="http://www.w3.org/2000/svg" xmlns:xlink="http://www.w3.org/1999/xlink" width="500" zoomAndPan="magnify" viewBox="0 0 375 374.999991" height="500" preserveAspectRatio="xMidYMid meet" version="1.0"><defs><clipPath id="id1"><path d="M 203 117.566406 L 228 117.566406 L 228 134 L 203 134 Z M 203 117.566406 " clip-rule="nonzero"/></clipPath><clipPath id="id2"><path d="M 229 133 L 235.238281 133 L 235.238281 144 L 229 144 Z M 229 133 " clip-rule="nonzero"/></clipPath><clipPath id="id3"><path d="M 139.988281 144 L 146 144 L 146 155 L 139.988281 155 Z M 139.988281 144 " clip-rule="nonzero"/></clipPath><clipPath id="id4"><path d="M 148 179 L 226 179 L 226 187.316406 L 148 187.316406 Z M 148 179 " clip-rule="nonzero"/></clipPath></defs><rect x="-37.5" width="450" fill="#ffffff" y="-37.499999" height="449.999989" fill-opacity="1"/><rect x="-37.5" width="450" fill="#ffffff" y="-37.499999" height="449.999989" fill-opacity="1"/><rect x="-37.5" width="450" fill="#ffffff" y="-37.499999" height="449.999989" fill-opacity="1"/><rect x="-37.5" width="450" fill="#ffffff" y="-37.499999" height="449.999989" fill-opacity="1"/><g clip-path="url(#id1)"><path fill="#0b8677" d="M 224.757812 121.511719 C 224.511719 123.226562 224.414062 124.929688 224.460938 126.597656 C 225.234375 126.238281 226.007812 125.878906 226.773438 125.507812 C 226.570312 123 226.652344 120.359375 227.054688 117.570312 C 219.742188 123.871094 212.136719 129.332031 203.71875 132.457031 C 203.835938 132.632812 203.9375 132.820312 204.03125 133.015625 C 210.394531 130.652344 219.234375 126.273438 224.757812 121.511719 Z M 224.757812 121.511719 " fill-opacity="1" fill-rule="evenodd"/></g><g clip-path="url(#id2)"><path fill="#0b8677" d="M 230.976562 136.039062 C 230.40625 136.808594 229.875 137.59375 229.382812 138.390625 C 229.429688 140.054688 229.597656 141.703125 229.882812 143.347656 C 231.066406 140.003906 232.8125 136.691406 235.238281 133.417969 C 233.316406 133.847656 231.398438 134.246094 229.488281 134.597656 C 229.4375 135.1875 229.40625 135.773438 229.386719 136.359375 C 229.925781 136.261719 230.457031 136.15625 230.976562 136.039062 Z M 230.976562 136.039062 " fill-opacity="1" fill-rule="evenodd"/></g><path fill="#0b8677" d="M 203.039062 134.503906 C 202.992188 134.269531 202.929688 134.046875 202.84375 133.828125 C 212.609375 132.605469 222.09375 128.695312 231.480469 123.8125 C 226.753906 135.765625 228.644531 146.371094 233.808594 156.308594 L 206.277344 150.257812 C 206.484375 149.78125 206.640625 149.28125 206.769531 148.761719 L 229.132812 153.503906 C 225.230469 145.996094 224.46875 136.46875 228.039062 127.4375 C 220.949219 131.125 210.417969 133.578125 203.039062 134.503906 Z M 203.039062 134.503906 " fill-opacity="1" fill-rule="evenodd"/><path fill="#0b8677" d="M 225.265625 150.339844 C 225.238281 150.257812 225.210938 150.171875 225.179688 150.089844 C 225.210938 150.171875 225.238281 150.253906 225.265625 150.339844 Z M 225.265625 150.339844 " fill-opacity="1" fill-rule="evenodd"/><path fill="#0b8677" d="M 223.925781 133.660156 L 223.972656 133.378906 C 223.957031 133.472656 223.941406 133.566406 223.925781 133.660156 Z M 223.925781 133.660156 " fill-opacity="1" fill-rule="evenodd"/><path fill="#0b8677" d="M 224.085938 132.773438 C 224.105469 132.679688 224.121094 132.585938 224.140625 132.496094 C 224.121094 132.589844 224.105469 132.679688 224.085938 132.773438 Z M 224.085938 132.773438 " fill-opacity="1" fill-rule="evenodd"/><path fill="#0b8677" d="M 224.140625 132.488281 C 224.160156 132.398438 224.179688 132.304688 224.199219 132.214844 Z M 224.140625 132.488281 " fill-opacity="1" fill-rule="evenodd"/><path fill="#0b8677" d="M 224.207031 132.179688 C 224.226562 132.097656 224.242188 132.015625 224.261719 131.933594 C 224.242188 132.015625 224.226562 132.097656 224.207031 132.179688 Z M 224.207031 132.179688 " fill-opacity="1" fill-rule="evenodd"/><path fill="#0b8677" d="M 224.269531 131.898438 C 224.289062 131.804688 224.3125 131.707031 224.332031 131.617188 C 224.3125 131.707031 224.289062 131.804688 224.269531 131.898438 Z M 224.269531 131.898438 " fill-opacity="1" fill-rule="evenodd"/><path fill="#0b8677" d="M 222.894531 125.996094 C 222.894531 126.425781 222.910156 126.855469 222.925781 127.28125 C 222.351562 127.539062 221.769531 127.785156 221.1875 128.03125 C 221.121094 128 221.050781 127.964844 220.988281 127.925781 C 220.730469 127.765625 220.527344 127.546875 220.382812 127.300781 C 218.710938 128.363281 216.949219 129.375 215.15625 130.320312 C 214.101562 130.675781 213.046875 131.007812 211.980469 131.3125 C 213.164062 130.742188 214.332031 130.148438 215.480469 129.53125 C 217.730469 128.320312 219.9375 127.003906 222.039062 125.554688 L 222.886719 124.964844 Z M 222.894531 125.996094 " fill-opacity="1" fill-rule="evenodd"/><path fill="#0b8677" d="M 150.621094 131.007812 C 150.730469 131.925781 150.800781 132.847656 150.828125 133.769531 L 151.402344 133.871094 C 151.394531 133.488281 151.375 133.105469 151.351562 132.722656 C 151.679688 132.710938 152.007812 132.613281 152.304688 132.421875 C 152.585938 132.242188 152.804688 132 152.949219 131.726562 L 161.628906 135.621094 L 163.878906 136.003906 L 150.496094 130.003906 Z M 150.621094 131.007812 " fill-opacity="1" fill-rule="evenodd"/><path fill="#0b8677" d="M 145.996094 132.945312 C 145.820312 129.847656 145.265625 126.746094 144.421875 123.644531 L 168.621094 134.707031 L 168.90625 134.839844 C 168.617188 135.242188 168.371094 135.679688 168.144531 136.136719 L 167.507812 135.851562 L 148.21875 127.207031 C 148.769531 129.230469 149.09375 131.339844 149.183594 133.488281 Z M 145.996094 132.945312 " fill-opacity="1" fill-rule="evenodd"/><g clip-path="url(#id3)"><path fill="#0b8677" d="M 143.941406 151.773438 C 144.449219 151.011719 144.921875 150.238281 145.355469 149.457031 C 145.234375 147.871094 145 146.304688 144.652344 144.746094 C 143.675781 147.992188 142.15625 151.234375 139.988281 154.464844 C 141.804688 153.96875 143.617188 153.503906 145.421875 153.082031 C 145.445312 152.519531 145.449219 151.957031 145.441406 151.398438 C 144.929688 151.515625 144.429688 151.640625 143.941406 151.773438 Z M 143.941406 151.773438 " fill-opacity="1" fill-rule="evenodd"/></g><path fill="#0b8677" d="M 166.730469 152.777344 L 166.753906 153.511719 C 158.96875 155.496094 151.4375 159.148438 144.011719 163.46875 C 147.980469 151.84375 145.699219 141.804688 140.316406 132.550781 L 166.875 137.09375 C 166.699219 137.558594 166.570312 138.042969 166.472656 138.542969 L 144.910156 135.019531 C 148.972656 142.011719 150.132812 151.074219 147.132812 159.855469 C 152.570312 156.691406 160.273438 154.226562 166.730469 152.78125 Z M 166.730469 152.777344 " fill-opacity="1" fill-rule="evenodd"/><path fill="#0b8677" d="M 149.917969 155.597656 C 150.988281 149.726562 150.445312 143.625 148.210938 138.078125 L 147.835938 137.140625 L 166.800781 140.242188 L 166.75 140.769531 C 166.703125 141.257812 166.660156 141.75 166.609375 142.242188 C 166.515625 143.15625 166.46875 144.101562 166.496094 145.023438 C 166.5 145.144531 166.507812 145.335938 166.527344 145.5625 L 166.597656 148.074219 C 165.714844 146.84375 165.890625 143.632812 166.042969 142.183594 C 166.089844 141.703125 166.132812 141.210938 166.179688 140.714844 L 148.742188 137.867188 L 150.648438 138.175781 C 150.578125 138.476562 150.429688 138.765625 150.207031 139.011719 C 149.96875 139.273438 149.675781 139.453125 149.363281 139.546875 C 150.894531 144.097656 151.355469 148.953125 150.78125 153.722656 L 150.804688 153.519531 C 151.316406 153.460938 151.847656 153.613281 152.253906 153.980469 C 152.488281 154.195312 152.65625 154.457031 152.753906 154.738281 L 152.574219 154.8125 C 157.089844 152.988281 162.078125 151.539062 166.667969 150.542969 L 166.683594 151.117188 C 163.832031 151.738281 160.996094 152.5 158.230469 153.382812 C 155.683594 154.195312 153.15625 155.128906 150.714844 156.21875 L 149.726562 156.660156 Z M 149.917969 155.597656 " fill-opacity="1" fill-rule="evenodd"/><path fill="#0b8677" d="M 148.742188 137.867188 C 148.773438 137.945312 148.804688 138.023438 148.835938 138.101562 C 148.804688 138.023438 148.773438 137.945312 148.742188 137.867188 Z M 148.742188 137.867188 " fill-opacity="1" fill-rule="evenodd"/><path fill="#0b8677" d="M 150.777344 153.730469 L 150.746094 153.996094 C 150.757812 153.90625 150.769531 153.816406 150.777344 153.730469 Z M 150.777344 153.730469 " fill-opacity="1" fill-rule="evenodd"/><path fill="#0b8677" d="M 150.664062 154.585938 C 150.652344 154.671875 150.640625 154.761719 150.625 154.847656 C 150.636719 154.761719 150.652344 154.671875 150.664062 154.585938 Z M 150.664062 154.585938 " fill-opacity="1" fill-rule="evenodd"/><path fill="#0b8677" d="M 150.625 154.855469 C 150.609375 154.945312 150.59375 155.03125 150.582031 155.121094 Z M 150.625 154.855469 " fill-opacity="1" fill-rule="evenodd"/><path fill="#0b8677" d="M 150.574219 155.15625 C 150.5625 155.234375 150.550781 155.3125 150.535156 155.394531 C 150.550781 155.3125 150.5625 155.234375 150.574219 155.15625 Z M 150.574219 155.15625 " fill-opacity="1" fill-rule="evenodd"/><path fill="#0b8677" d="M 150.53125 155.425781 C 150.515625 155.519531 150.5 155.609375 150.480469 155.699219 C 150.5 155.609375 150.515625 155.519531 150.53125 155.425781 Z M 150.53125 155.425781 " fill-opacity="1" fill-rule="evenodd"/><path fill="#343434" d="M 185.894531 130.933594 L 185.894531 130.773438 C 185.894531 130.222656 186.085938 129.710938 186.40625 129.304688 C 186.847656 128.742188 187.535156 128.378906 188.304688 128.378906 L 191.664062 128.378906 C 192.988281 128.378906 194.070312 129.457031 194.070312 130.773438 L 194.070312 152.980469 C 194.070312 153.179688 194.046875 153.375 194 153.558594 L 185.964844 153.558594 C 185.917969 153.375 185.894531 153.179688 185.894531 152.980469 L 185.894531 152.820312 C 185.894531 147.476562 185.894531 136.296875 185.894531 130.933594 Z M 203.464844 138.648438 L 202.703125 150.144531 C 202.601562 150.300781 202.328125 150.558594 202.230469 150.652344 C 201.757812 151.101562 201.28125 151.523438 200.824219 151.992188 C 199.988281 152.851562 199.09375 153.558594 197.835938 153.558594 L 195.925781 153.558594 C 195.878906 153.511719 195.835938 153.464844 195.800781 153.414062 C 195.480469 153.007812 195.289062 152.496094 195.289062 151.941406 L 195.289062 132.210938 C 195.289062 131.660156 195.480469 131.148438 195.800781 130.742188 C 196.242188 130.179688 196.929688 129.816406 197.699219 129.816406 L 201.058594 129.816406 C 202.382812 129.816406 203.46875 130.894531 203.46875 132.210938 L 203.46875 138.648438 Z M 184.644531 152.429688 L 184.644531 152.449219 C 184.644531 152.851562 184.542969 153.226562 184.367188 153.558594 L 183.253906 153.558594 C 182.421875 153.558594 181.621094 153.847656 181.046875 154.457031 C 180.929688 154.582031 180.828125 154.710938 180.742188 154.84375 L 178.875 154.84375 C 178.105469 154.84375 177.417969 154.484375 176.976562 153.921875 C 176.65625 153.515625 176.46875 153.003906 176.46875 152.449219 L 176.46875 132.71875 C 176.46875 132.167969 176.65625 131.65625 176.976562 131.25 C 177.417969 130.6875 178.105469 130.324219 178.875 130.324219 L 182.234375 130.324219 C 183.558594 130.324219 184.644531 131.402344 184.644531 132.71875 Z M 204.113281 148.644531 L 204.714844 148.949219 C 204.753906 148.824219 204.792969 148.699219 204.828125 148.578125 L 204.347656 148.476562 L 204.683594 146.152344 C 204.757812 145.636719 204.824219 145.117188 204.90625 144.601562 C 205.039062 143.730469 205.121094 142.839844 205.136719 141.960938 C 205.144531 141.636719 205.128906 140.917969 205.046875 140.433594 L 204.605469 140.273438 L 204.042969 148.777344 L 204.117188 148.644531 Z M 195.570312 162.933594 C 203.929688 162.933594 205.101562 161.664062 208.996094 157.226562 L 203.15625 154.21875 L 201.300781 153.261719 C 200.734375 153.789062 200.128906 154.226562 199.433594 154.5 L 199.421875 154.503906 L 199.304688 154.546875 L 199.246094 154.566406 L 199.238281 154.570312 L 199.183594 154.585938 L 199.175781 154.589844 L 199.117188 154.609375 L 199.109375 154.609375 L 199.050781 154.628906 L 199.042969 154.628906 L 198.984375 154.644531 L 198.976562 154.648438 L 198.953125 154.652344 L 198.910156 154.664062 L 198.851562 154.679688 L 198.84375 154.683594 L 198.78125 154.695312 L 198.773438 154.695312 L 198.742188 154.703125 L 198.636719 154.722656 L 198.570312 154.734375 L 198.566406 154.734375 L 198.5 154.746094 L 198.496094 154.746094 L 198.429688 154.753906 L 198.425781 154.753906 L 198.355469 154.765625 L 198.285156 154.773438 L 198.28125 154.773438 L 198.210938 154.777344 L 198.136719 154.785156 L 197.988281 154.792969 L 197.835938 154.792969 C 197.835938 154.796875 193.152344 154.792969 192.746094 154.792969 L 186.828125 154.792969 C 184.960938 154.792969 181.171875 153.976562 181.605469 156.964844 C 181.789062 158.226562 182.5625 159.71875 182.84375 160.53125 C 183.300781 161.851562 184.757812 162.929688 186.082031 162.929688 L 195.574219 162.929688 Z M 197.910156 154.792969 Z M 197.988281 154.792969 Z M 198.136719 154.785156 Z M 199.300781 154.546875 Z M 167.414062 150.179688 L 167.414062 137.632812 L 167.425781 137.605469 L 167.414062 137.601562 L 167.414062 135.699219 C 167.414062 135.144531 167.605469 134.632812 167.921875 134.226562 C 168.363281 133.664062 169.050781 133.300781 169.820312 133.300781 L 173.179688 133.300781 C 174.503906 133.300781 175.589844 134.378906 175.589844 135.699219 L 175.589844 152.109375 C 175.589844 153.429688 174.503906 154.507812 173.179688 154.507812 L 169.820312 154.507812 C 169.050781 154.507812 168.363281 154.144531 167.921875 153.582031 C 167.601562 153.175781 167.414062 152.664062 167.414062 152.109375 L 167.414062 150.207031 L 167.425781 150.203125 Z M 167.414062 150.179688 " fill-opacity="1" fill-rule="evenodd"/><path fill="#343434" d="M 205.828125 161.542969 C 205.429688 161.882812 205.011719 162.195312 204.5625 162.476562 C 201.875 164.144531 198.246094 164.199219 195.179688 164.199219 L 186.132812 164.199219 C 185.171875 164.199219 184.214844 163.8125 183.441406 163.199219 C 182.746094 162.648438 182.199219 161.917969 181.921875 161.125 C 181.675781 160.40625 181.328125 159.714844 181.074219 158.984375 C 180.90625 158.503906 180.765625 158.007812 180.691406 157.503906 C 180.640625 157.164062 180.632812 156.820312 180.671875 156.492188 L 179.261719 156.492188 C 178.1875 156.492188 177.179688 155.996094 176.519531 155.15625 L 176.417969 155.023438 C 175.78125 155.726562 174.859375 156.167969 173.835938 156.167969 L 170.628906 156.167969 C 169.996094 156.167969 169.382812 156 168.855469 155.683594 C 168.855469 162.179688 170.691406 167.292969 176.644531 168.777344 C 176.515625 168.746094 177.917969 172.167969 178.101562 172.769531 C 178.589844 174.347656 179.007812 176.203125 179.324219 178.410156 L 195.675781 178.410156 C 195.992188 176.203125 196.410156 174.347656 196.898438 172.769531 C 197.425781 171.058594 198.03125 169.671875 198.671875 168.523438 C 198.464844 168.578125 205.828125 166.449219 205.828125 161.539062 Z M 202.722656 179.234375 L 200.585938 175.191406 C 200.308594 176.207031 200.070312 177.28125 199.832031 178.464844 L 199.761719 178.804688 C 200.75 178.933594 201.738281 179.078125 202.722656 179.234375 Z M 196.417969 177.476562 C 196.367188 177.792969 196.316406 178.109375 196.269531 178.421875 L 196.742188 178.464844 C 197.40625 178.53125 198.066406 178.601562 198.726562 178.679688 L 198.679688 178.511719 C 198.183594 176.804688 198.605469 174.851562 199.402344 172.949219 L 199.039062 172.257812 L 198.246094 170.761719 C 197.949219 171.476562 197.691406 172.207031 197.464844 172.941406 C 197.007812 174.421875 196.675781 175.945312 196.417969 177.476562 Z M 196.417969 177.476562 " fill-opacity="1" fill-rule="evenodd"/><path fill="#0b8677" d="M 199.25 178.347656 C 199.875 175.226562 200.5 171.988281 203.4375 167.238281 C 201.25 170.386719 198.273438 174.96875 199.25 178.347656 Z M 172.59375 175.816406 C 172.128906 173.488281 171.660156 171.074219 169.472656 167.535156 C 171.105469 169.878906 173.320312 173.296875 172.59375 175.816406 Z M 175.773438 178.347656 C 176.75 174.96875 173.773438 170.386719 171.585938 167.238281 C 174.523438 171.988281 175.148438 175.226562 175.773438 178.347656 Z M 202.429688 175.816406 C 201.699219 173.296875 203.917969 169.878906 205.550781 167.535156 C 203.359375 171.074219 202.894531 173.488281 202.429688 175.816406 Z M 202.429688 175.816406 " fill-opacity="1" fill-rule="evenodd"/><path fill="#0b8677" d="M 199.414062 178.269531 L 199.273438 178.957031 L 199.109375 178.386719 C 198.609375 176.660156 199.117188 174.636719 200.023438 172.648438 C 200.921875 170.679688 202.214844 168.742188 203.3125 167.167969 L 203.316406 167.15625 L 203.558594 167.3125 C 200.671875 171.988281 200.027344 175.191406 199.414062 178.269531 Z M 199.246094 177.628906 C 199.683594 175.480469 200.199219 173.230469 201.519531 170.4375 C 201.070312 171.195312 200.648438 171.980469 200.289062 172.765625 C 199.523438 174.441406 199.050781 176.132812 199.246094 177.628906 Z M 172.453125 175.84375 L 172.4375 175.765625 C 171.976562 173.472656 171.5 171.089844 169.351562 167.609375 L 169.59375 167.453125 L 169.597656 167.460938 C 170.414062 168.636719 171.378906 170.082031 172.050781 171.550781 C 172.730469 173.042969 173.109375 174.558594 172.734375 175.855469 L 172.570312 176.421875 Z M 171.253906 170.613281 C 171.96875 172.277344 172.304688 173.6875 172.582031 175.03125 C 172.652344 173.984375 172.3125 172.820312 171.785156 171.667969 C 171.625 171.316406 171.445312 170.960938 171.253906 170.613281 Z M 175.777344 177.628906 C 175.972656 176.132812 175.5 174.441406 174.734375 172.765625 C 174.375 171.980469 173.953125 171.195312 173.503906 170.441406 C 174.828125 173.230469 175.339844 175.480469 175.777344 177.628906 Z M 175 172.648438 C 175.90625 174.636719 176.410156 176.660156 175.910156 178.386719 L 175.746094 178.957031 L 175.609375 178.273438 C 174.996094 175.195312 174.355469 171.992188 171.464844 167.3125 L 171.703125 167.15625 L 171.710938 167.164062 C 172.808594 168.742188 174.097656 170.679688 174.996094 172.648438 Z M 202.289062 175.855469 C 201.914062 174.558594 202.292969 173.042969 202.972656 171.550781 C 203.644531 170.082031 204.605469 168.640625 205.425781 167.460938 L 205.429688 167.453125 L 205.671875 167.609375 C 203.523438 171.089844 203.042969 173.476562 202.585938 175.765625 L 202.453125 176.421875 Z M 203.234375 171.667969 C 202.710938 172.824219 202.371094 173.984375 202.441406 175.03125 C 202.71875 173.6875 203.054688 172.277344 203.769531 170.613281 C 203.578125 170.960938 203.398438 171.316406 203.238281 171.667969 Z M 203.234375 171.667969 " fill-opacity="1" fill-rule="evenodd"/><g clip-path="url(#id4)"><path fill="#0b8677" d="M 225.550781 187.3125 C 199.792969 181.71875 174.3125 181.71875 148.800781 187.3125 C 174.015625 177.28125 199.566406 176.296875 225.550781 187.3125 Z M 225.550781 187.3125 " fill-opacity="1" fill-rule="evenodd"/></g><path fill="#0b8677" d="M 207.183594 146.507812 L 223.289062 149.917969 C 223.378906 149.609375 223.546875 149.3125 223.796875 149.066406 C 224.054688 148.808594 224.371094 148.636719 224.703125 148.550781 C 223.34375 143.789062 223.09375 138.769531 223.886719 133.878906 C 223.347656 133.914062 222.804688 133.730469 222.394531 133.324219 C 222.160156 133.089844 222 132.808594 221.910156 132.507812 L 222.097656 132.441406 C 216.03125 134.566406 209.203125 136.03125 203.464844 136.757812 L 203.464844 137.503906 C 203.882812 137.46875 204.253906 137.472656 204.808594 137.671875 L 206.527344 138.296875 C 208.097656 138.863281 207.671875 143.203125 207.402344 144.980469 C 207.324219 145.480469 207.257812 145.992188 207.183594 146.507812 Z M 215.960938 143.34375 C 214.5625 143.476562 213.320312 142.453125 213.183594 141.058594 C 213.050781 139.667969 214.078125 138.429688 215.476562 138.296875 C 217.179688 138.136719 218.535156 139.660156 218.21875 141.300781 C 218.011719 142.375 217.113281 143.234375 215.960938 143.34375 Z M 215.960938 143.34375 " fill-opacity="1" fill-rule="evenodd"/><path fill="#0b8677" d="M 215.660156 140.917969 L 215.730469 142.226562 C 215.074219 142.257812 215.0625 141.609375 215.042969 141.558594 C 215.035156 141.542969 214.964844 141.492188 214.960938 141.652344 C 214.957031 141.777344 214.9375 142.277344 215.003906 142.332031 C 215.136719 142.4375 215.554688 142.445312 215.742188 142.433594 L 215.773438 142.960938 L 216.058594 142.945312 L 216.027344 142.386719 C 216.824219 142.160156 217 141.257812 216.316406 140.65625 L 215.914062 140.359375 L 215.855469 139.25 C 216.421875 139.226562 216.453125 139.75 216.464844 139.769531 C 216.472656 139.78125 216.546875 139.839844 216.539062 139.652344 L 216.507812 139.105469 L 215.839844 139.050781 L 215.8125 138.523438 L 215.527344 138.539062 L 215.558594 139.101562 C 214.839844 139.320312 214.71875 140.078125 215.296875 140.632812 C 215.386719 140.71875 215.496094 140.804688 215.628906 140.898438 Z M 215.570312 139.320312 L 215.617188 140.148438 C 215.277344 139.871094 215.246094 139.511719 215.570312 139.320312 Z M 215.957031 141.132812 C 216.390625 141.480469 216.414062 141.960938 216.011719 142.160156 Z M 215.957031 141.132812 " fill-opacity="1" fill-rule="evenodd"/><path fill="#0b8677" d="M 158.8125 146.484375 L 158.902344 148.0625 C 158.109375 148.097656 158.09375 147.316406 158.070312 147.257812 C 158.0625 147.234375 157.976562 147.171875 157.972656 147.367188 C 157.96875 147.519531 157.945312 148.121094 158.027344 148.1875 C 158.183594 148.3125 158.6875 148.324219 158.914062 148.308594 L 158.949219 148.945312 L 159.292969 148.925781 L 159.253906 148.25 C 160.214844 147.984375 160.429688 146.894531 159.601562 146.167969 L 159.121094 145.8125 L 159.046875 144.472656 C 159.730469 144.449219 159.769531 145.074219 159.78125 145.097656 C 159.792969 145.117188 159.882812 145.183594 159.871094 144.960938 L 159.835938 144.300781 L 159.03125 144.234375 L 159 143.597656 L 158.65625 143.617188 L 158.695312 144.296875 C 157.824219 144.5625 157.679688 145.472656 158.375 146.140625 C 158.484375 146.242188 158.617188 146.351562 158.777344 146.457031 Z M 158.707031 144.558594 L 158.761719 145.554688 C 158.355469 145.222656 158.316406 144.789062 158.707031 144.558594 Z M 159.171875 146.742188 C 159.695312 147.160156 159.722656 147.742188 159.242188 147.980469 Z M 159.171875 146.742188 " fill-opacity="1" fill-rule="evenodd"/></svg>